<svg width="256" height="128" viewBox="0 0 256 128" xmlns="http://www.w3.org/2000/svg">
    <g fill="#000100">
        <path d="M236.36 7.51c3.64-.73 7.56-.94 11.16.11 4.09 1.71 3.49 6.78 3.55 10.4.19 3.57-.53 8.23-4.52 9.42-6.23 1.77-14.93-.06-17.18-6.92-2.07-5.38 1.14-12.02 6.99-13.01zM204.44 8.63c3.89-.72 8.63-1.57 12.04.96 2 2.72 1.5 6.35 1.52 9.54-.1 2.74-.63 6.33-3.73 7.24-4.63 1.32-10.21.54-13.83-2.8-4.54-4.51-2.8-13.8 4-14.94m-3.5 4.22c-3.36 4.31-.11 10.83 4.95 11.91 3.43.8 8.95 1.72 10.23-2.69.38-4.23 1.09-9.02-1.63-12.66l-.02 1.73-.66-1.44c-4.35.08-9.77-.59-12.87 3.15zM119.92 12.34c6.51.36 12.81 2.17 18.53 5.25 3.62.05 7.4.31 10.96-.36 5.5-2.9 11.55-4.53 17.76-4.89 3.2 5.68 4.5 12.17 4.76 18.63 0 3.58 2.09 6.63 2.89 10.02 3.59 13.26-2.77 28.4-14.79 35.07-7.76 4.5-17.47 5.43-25.94 2.5-11.76-3.84-20.56-15.23-21.31-27.58-.86-5.85 1.78-11.28 2.43-16.95-.15-7.47 1.06-15.08 4.71-21.69zM21.89 25.05c.4-3.64 1.63-7.11 3.03-10.47 6.04.72 12.09 2.23 17.19 5.66 3.66-.49 7.35-.58 11.02-.26 5.06-3.22 10.93-4.73 16.83-5.38 2.58 5.42 3.66 11.39 3.92 17.35.05 3.58 2.2 6.6 2.96 10.01 2.69 10.3-.93 21.85-8.92 28.86-9.87 9.02-25.96 9.87-36.73 1.95-9.96-6.86-14.64-20.3-11.07-31.86 1.92-5.09.92-10.59 1.77-15.86m.06 17.08c-2.73 9.4.52 20.36 7.99 26.67 8.81 8.98 24.09 9.73 34.12 2.34 11.21-7.51 15.16-24 7.94-35.55-.06-6.39-.9-12.83-3.27-18.8-5.31 1.03-10.86 2.08-15.32 5.35-3.79-.53-7.62-.45-11.38.3-4.75-3.02-10.16-4.74-15.69-5.69-3.71 7.98-2.22 17.03-4.39 25.38zM217.41 43.57c5.58-1.93 12.16-1.38 17.24 1.68 2.62 1.47 4.65 5.16 2.47 7.83-3.54 3.19-8.78 1.9-13.11 2.21-3.51-.31-8.31.82-10.57-2.63-1.46-3.42.4-7.88 3.97-9.09m5.75.67c-2.84.1-6.16.61-7.73 3.28-1.33 1.82-1.06 5.38 1.63 5.68 5.25.43 10.57.65 15.82.09 2.01-.11 4.18-1.88 3.23-4.06-2.73-4.22-8.33-4.97-12.95-4.99zM217.33 73.41c6.39-1.73 13.82-.94 19.24 3.04 3.46 2.43 4.61 8.19 1.01 11-4.27 2.89-9.78 2.2-14.66 2.25-3.84-.31-8.78.33-11.3-3.28-3.08-4.84.38-11.65 5.71-13.01z" />
    </g>
    <g fill="#f5f8ee">
        <path d="M200.94 12.85c3.1-3.74 8.52-3.07 12.87-3.15l.66 1.44c.01 2.92 0 6.06-1.66 8.59-1.56 2.52-4.36 3.78-6.92 5.03-5.06-1.08-8.31-7.6-4.95-11.91zM223.16 44.24c4.62.02 10.22.77 12.95 4.99.95 2.18-1.22 3.95-3.23 4.06-5.25.56-10.57.34-15.82-.09-2.69-.3-2.96-3.86-1.63-5.68 1.57-2.67 4.89-3.18 7.73-3.28zM28.26 52.54c.92.09 1.84.22 2.76.38-.37 1.25-.74 2.5-1.12 3.76-1.01-.4-2.01-.8-3.02-1.2.48-.97.89-1.97 1.38-2.94zM38.04 52.37l3.65-.06c-.01.64-.02 1.91-.02 2.55-.85.35-1.69.7-2.53 1.04-.37-1.18-.74-2.35-1.1-3.53zM55.37 52.19c1.15.18 2.29.35 3.44.53-.08 2.07-1.53 3.05-3.43 3.43-.01-1.32-.01-2.64-.01-3.96zM35.23 60.29c.84.67 1.68 1.34 2.53 2.02-.78.81-1.56 1.63-2.34 2.44-.68-.72-1.36-1.44-2.05-2.14.62-.78 1.24-1.55 1.86-2.32zM240.22 105.22c1.08 1.2 2.12 2.46 3.09 3.76.26 2.38.09 4.79-.02 7.18-.66 1.65-1.84 3.02-2.92 4.41-3.54-4.47-3.69-10.84-.15-15.35z" />
    </g>
    <g fill="#7ac5a2">
        <path d="M214.47 11.14l.02-1.73c2.72 3.64 2.01 8.43 1.63 12.66-1.28 4.41-6.8 3.49-10.23 2.69 2.56-1.25 5.36-2.51 6.92-5.03 1.66-2.53 1.67-5.67 1.66-8.59zM56.41 23.56c3.38-2.05 7.14-3.35 10.95-4.38 1.53 5.49 1.19 11.59 4.64 16.41 7.22 11.55 3.27 28.04-7.94 35.55-10.03 7.39-25.31 6.64-34.12-2.34 5.57 1.29 11.39 2.52 17.09 1.28 5.47-.91 9.8-4.92 15.28-5.82.77-2.14 1.12-4.58 2.66-6.35 1.48-.91 3.16-1.4 4.76-2.07-.47-1.3-.95-2.6-1.42-3.9 2.12-7.6 1.54-15.7-1.96-22.79.25-.33.76-.99 1.02-1.32-.74-1.72-1.56-3.4-2.28-5.13-2.78 1.02-5.75 1.62-8.68.86zM28.03 20.1c3.25.81 6.74 1.31 9.52 3.33.71 1.47-1.77 1.39-2.53 2.1-1.8-.78-3.61-1.54-5.42-2.3-.19 1.88-.62 3.76-1.85 5.26 1.08 2.09-.7 3.93-1.55 5.74-.12-4.77.03-9.64 1.83-14.13z" />
    </g>
    <path fill="#cce2bf" d="M21.95 42.13c2.17-8.35.68-17.4 4.39-25.38 5.53.95 10.94 2.67 15.69 5.69 3.76-.75 7.59-.83 11.38-.3 4.46-3.27 10.01-4.32 15.32-5.35 2.37 5.97 3.21 12.41 3.27 18.8-3.45-4.82-3.11-10.92-4.64-16.41-3.81 1.03-7.57 2.33-10.95 4.38 2.93.76 5.9.16 8.68-.86.72 1.73 1.54 3.41 2.28 5.13-.26.33-.77.99-1.02 1.32 3.5 7.09 4.08 15.19 1.96 22.79.47 1.3.95 2.6 1.42 3.9-1.6.67-3.28 1.16-4.76 2.07-1.54 1.77-1.89 4.21-2.66 6.35-5.48.9-9.81 4.91-15.28 5.82-5.7 1.24-11.52.01-17.09-1.28-7.47-6.31-10.72-17.27-7.99-26.67m6.08-22.03c-1.8 4.49-1.95 9.36-1.83 14.13.85-1.81 2.63-3.65 1.55-5.74 1.23-1.5 1.66-3.38 1.85-5.26 1.81.76 3.62 1.52 5.42 2.3.76-.71 3.24-.63 2.53-2.1-2.78-2.02-6.27-2.52-9.52-3.33m.23 32.44c-.49.97-.9 1.97-1.38 2.94 1.01.4 2.01.8 3.02 1.2.38-1.26.75-2.51 1.12-3.76-.92-.16-1.84-.29-2.76-.38m9.78-.17c.36 1.18.73 2.35 1.1 3.53.84-.34 1.68-.69 2.53-1.04 0-.64.01-1.91.02-2.55l-3.65.06m17.33-.18c0 1.32 0 2.64.01 3.96 1.9-.38 3.35-1.36 3.43-3.43-1.15-.18-2.29-.35-3.44-.53m-20.14 8.1c-.62.77-1.24 1.54-1.86 2.32.69.7 1.37 1.42 2.05 2.14.78-.81 1.56-1.63 2.34-2.44-.85-.68-1.69-1.35-2.53-2.02z" />
    <g fill="#006d61">
        <path d="M79.41 105.37c1.36-.62 2.84.52 3.48 1.68 1.76 3.21 1.74 7.21.6 10.63-.61 1.74-2.4 3.95-4.44 2.67-2.24-1.68-2.58-4.76-2.61-7.36-.03-2.74.43-6.04 2.97-7.62zM237.9 105.81c1.54-2.95 6.76-.67 6.2 2.38-.2.19-.59.59-.79.79-.97-1.3-2.01-2.56-3.09-3.76-3.54 4.51-3.39 10.88.15 15.35 1.08-1.39 2.26-2.76 2.92-4.41.78-1.87.18-4.01.95-5.86 1.7-.14.83 2.53.91 3.56-.23 2.21-.65 4.53-2.04 6.33-1.49 1.63-4.45.93-5.43-.95-2.39-4.02-1.97-9.42.22-13.43zM110.27 105.5c2.12 2.3 4.39 4.54 5.97 7.26.15 2.62-.58 5.38-2.36 7.37-1.68 1.1-3.52-.06-4.28-1.66-2.01-4.12-1.22-8.96.67-12.97zM141.87 108.1c.46-.25 1.39-.73 1.86-.97 2.81 2.79 5.66 5.54 8.33 8.47-5.27 1.22-10.74.53-16.1.52.31-.42.92-1.27 1.23-1.7 3.53-.4 7.1-.1 10.65-.16-2.01-2.03-4.02-4.07-5.97-6.16zM173.21 108.17c4.14-2.64 10.82.73 10.26 5.86-.32.4-.94 1.19-1.25 1.59-.89-2.57-1.86-6.04-5.2-6.16-3.22-.23-4.91 2.85-5.45 5.56-.46-.03-1.39-.11-1.85-.15.41-2.51 1.07-5.36 3.49-6.7zM207.34 106.55c1.75 1.02 1.68 3.07 1.88 4.83 1.57.34 4.14-.58 4.35 1.76-1.47.34-3 .31-4.49.53-.1 1.57-.22 3.13-.36 4.7-2.07-.8-1.63-3.11-1.95-4.86-1.45-.04-2.9-.06-4.35-.07.24-2.24 2.83-1.94 4.48-2.09.12-1.61.27-3.2.44-4.8z" />
    </g>
</svg>
